<svg width="18" height="20" viewBox="0 0 18 20" fill="none" xmlns="http://www.w3.org/2000/svg">
<path d="M16 4.7619H14C14 2.09524 11.8 0 9 0C6.2 0 4 2.09524 4 4.7619H2C0.9 4.7619 0 5.61905 0 6.66667V18.0952C0 19.1429 0.9 20 2 20H16C17.1 20 18 19.1429 18 18.0952V6.66667C18 5.61905 17.1 4.7619 16 4.7619ZM9 1.90476C10.7 1.90476 12 3.14286 12 4.7619H6C6 3.14286 7.3 1.90476 9 1.90476ZM16 18.0952H2V6.66667H16V18.0952ZM9 10.4762C7.3 10.4762 6 9.2381 6 7.61905H4C4 10.2857 6.2 12.381 9 12.381C11.8 12.381 14 10.2857 14 7.61905H12C12 9.2381 10.7 10.4762 9 10.4762Z" fill="#F1F1F1"/>
</svg>
