<svg width="14" height="14" viewBox="0 0 14 14" fill="none" xmlns="http://www.w3.org/2000/svg">
<path d="M0 12V2C0 1.45 0.152185 0.979333 0.456555 0.588C0.761444 0.196 1.12778 0 1.55556 0H12.4444C12.8722 0 13.2386 0.196 13.5434 0.588C13.8478 0.979333 14 1.45 14 2V12C14 12.55 13.8478 13.021 13.5434 13.413C13.2386 13.8043 12.8722 14 12.4444 14H1.55556C1.12778 14 0.761444 13.8043 0.456555 13.413C0.152185 13.021 0 12.55 0 12ZM1.55556 4H3.11111V2H1.55556V4ZM4.66667 4H12.4444V2H4.66667V4ZM4.66667 8H12.4444V6H4.66667V8ZM4.66667 12H12.4444V10H4.66667V12ZM1.55556 12H3.11111V10H1.55556V12ZM1.55556 8H3.11111V6H1.55556V8Z" fill="#FF5668"/>
</svg>
