<svg width="22" height="22" viewBox="0 0 22 22" fill="none" xmlns="http://www.w3.org/2000/svg">
<path d="M5.99947 13.0007C6.5299 13.0007 7.03861 12.79 7.41368 12.4149C7.78875 12.0399 7.99946 11.5312 7.99946 11.0007C7.99946 10.4703 7.78875 9.96159 7.41368 9.58652C7.03861 9.21145 6.5299 9.00073 5.99947 9.00073C5.46903 9.00073 4.96032 9.21145 4.58525 9.58652C4.21018 9.96159 3.99947 10.4703 3.99947 11.0007C3.99947 11.5312 4.21018 12.0399 4.58525 12.4149C4.96032 12.79 5.46903 13.0007 5.99947 13.0007ZM15.9995 13.0007C16.5299 13.0007 17.0386 12.79 17.4137 12.4149C17.7887 12.0399 17.9995 11.5312 17.9995 11.0007C17.9995 10.4703 17.7887 9.96159 17.4137 9.58652C17.0386 9.21145 16.5299 9.00073 15.9995 9.00073C15.469 9.00073 14.9603 9.21145 14.5852 9.58652C14.2102 9.96159 13.9995 10.4703 13.9995 11.0007C13.9995 11.5312 14.2102 12.0399 14.5852 12.4149C14.9603 12.79 15.469 13.0007 15.9995 13.0007ZM10.9995 8.00073C11.5299 8.00073 12.0386 7.79002 12.4137 7.41494C12.7887 7.03987 12.9995 6.53116 12.9995 6.00073C12.9995 5.4703 12.7887 4.96159 12.4137 4.58652C12.0386 4.21145 11.5299 4.00073 10.9995 4.00073C10.469 4.00073 9.96032 4.21145 9.58525 4.58652C9.21018 4.96159 8.99946 5.4703 8.99946 6.00073C8.99946 6.53116 9.21018 7.03987 9.58525 7.41494C9.96032 7.79002 10.469 8.00073 10.9995 8.00073ZM10.9995 18.0007C11.5299 18.0007 12.0386 17.79 12.4137 17.4149C12.7887 17.0399 12.9995 16.5312 12.9995 16.0007C12.9995 15.4703 12.7887 14.9616 12.4137 14.5865C12.0386 14.2114 11.5299 14.0007 10.9995 14.0007C10.469 14.0007 9.96032 14.2114 9.58525 14.5865C9.21018 14.9616 8.99946 15.4703 8.99946 16.0007C8.99946 16.5312 9.21018 17.0399 9.58525 17.4149C9.96032 17.79 10.469 18.0007 10.9995 18.0007Z" stroke="#1B1B4B" stroke-width="1.5" stroke-linecap="round" stroke-linejoin="round"/>
<path d="M1 11C1 16.523 5.477 21 11 21C16.523 21 21 16.523 21 11C21 5.477 16.523 1 11 1C5.477 1 1 5.477 1 11ZM1 11V21" stroke="#1B1B4B" stroke-width="1.5" stroke-linecap="round" stroke-linejoin="round"/>
</svg>
