<svg width="27" height="17" viewBox="0 0 27 17" fill="none" xmlns="http://www.w3.org/2000/svg">
<path d="M16.6907 5.28571H23.0908C23.8624 5.28571 24.6024 5.56792 25.1479 6.07025C25.6935 6.57258 26 7.25388 26 7.96429C26 8.67469 25.6935 9.35599 25.1479 9.85832C24.6024 10.3607 23.8624 10.6429 23.0908 10.6429H18.4129C18.2386 10.643 18.0665 10.6791 17.9094 10.7487C17.7523 10.8182 17.6142 10.9194 17.5053 11.0446L13.5488 15.5982C13.4399 15.7235 13.3017 15.8247 13.1446 15.8942C12.9875 15.9637 12.8155 15.9999 12.6412 16H10.2626C10.0726 15.9999 9.88542 15.9569 9.71757 15.8748C9.54971 15.7928 9.40624 15.6741 9.2997 15.5292C9.19317 15.3842 9.1268 15.2175 9.10641 15.0435C9.08603 14.8695 9.11223 14.6936 9.18275 14.5311L10.2324 12.1118C10.3028 11.9494 10.3291 11.7735 10.3087 11.5996C10.2884 11.4257 10.2221 11.259 10.1157 11.1141C10.0093 10.9693 9.86603 10.8505 9.69832 10.7684C9.53062 10.6862 9.34362 10.6431 9.15366 10.6429H4.65726C4.42957 10.6428 4.20688 10.5813 4.0168 10.4659C3.82671 10.3505 3.67757 10.1863 3.58786 9.99357L1.09413 4.63643C1.01822 4.47339 0.987465 4.29554 1.00463 4.11885C1.02179 3.94217 1.08632 3.77217 1.19245 3.62411C1.29857 3.47606 1.44296 3.35458 1.61265 3.27059C1.78235 3.18659 1.97204 3.1427 2.1647 3.14286H4.33493C4.55098 3.14296 4.76273 3.19845 4.94646 3.30309C5.1302 3.40774 5.27867 3.55741 5.37524 3.73536L5.89656 4.69321C5.99314 4.87116 6.14161 5.02083 6.32534 5.12548C6.50908 5.23013 6.72083 5.28561 6.93688 5.28571H10.8724M16.6907 5.28571L13.5488 1.42857C13.4404 1.2955 13.2999 1.1875 13.1383 1.11311C12.9767 1.03873 12.7985 1 12.6179 1H10.4279C10.2296 1.0001 10.0346 1.04684 9.86148 1.1358C9.68833 1.22475 9.54274 1.35297 9.43853 1.50828C9.33431 1.66359 9.27492 1.84084 9.266 2.02322C9.25708 2.2056 9.29892 2.38705 9.38755 2.55036L10.8724 5.28571M16.6907 5.28571H10.8724" stroke="#1B1B4B" stroke-width="1.5" stroke-linecap="round" stroke-linejoin="round"/>
</svg>
