<svg width="25" height="28" viewBox="0 0 25 28" fill="none" xmlns="http://www.w3.org/2000/svg">
<path d="M7.33333 4.66667H4.66667C3.95942 4.66667 3.28115 4.94762 2.78105 5.44772C2.28095 5.94781 2 6.62609 2 7.33333V23.3333C2 24.0406 2.28095 24.7189 2.78105 25.219C3.28115 25.719 3.95942 26 4.66667 26H20.6667C21.3739 26 22.0522 25.719 22.5523 25.219C23.0524 24.7189 23.3333 24.0406 23.3333 23.3333V7.33333C23.3333 6.62609 23.0524 5.94781 22.5523 5.44772C22.0522 4.94762 21.3739 4.66667 20.6667 4.66667H18M7.33333 4.66667C7.33333 3.95942 7.61429 3.28115 8.11438 2.78105C8.61448 2.28095 9.29276 2 10 2H15.3333C16.0406 2 16.7189 2.28095 17.219 2.78105C17.719 3.28115 18 3.95942 18 4.66667M7.33333 4.66667C7.33333 5.37391 7.61429 6.05219 8.11438 6.55228C8.61448 7.05238 9.29276 7.33333 10 7.33333H15.3333C16.0406 7.33333 16.7189 7.05238 17.219 6.55228C17.719 6.05219 18 5.37391 18 4.66667" stroke="#1B1B4B" stroke-width="2.2" stroke-linecap="round" stroke-linejoin="round"/>
<path d="M8.66626 16.667L11.3329 19.3337L16.6663 12.667" stroke="#FF8E36" stroke-width="2.2" stroke-linecap="round" stroke-linejoin="round"/>
</svg>
