<svg width="22" height="33" viewBox="0 0 22 33" fill="none" xmlns="http://www.w3.org/2000/svg">
<path d="M10.9812 16.9236L9.55362 20.0437L6.09229 20.4129L8.6834 22.6803L7.95373 26.0267L10.9812 24.3261L14.0086 26.0291L13.2802 22.6827L15.8701 20.4117L12.4087 20.0425L10.9812 16.9236Z" fill="#FF5668"/>
<path d="M0 0L5.214 12.3376C2.09 14.2287 0 17.5941 0 21.4359C0 27.3451 4.93411 32.1539 11 32.1539C17.0659 32.1539 22 27.3451 22 21.4359C22 17.5953 19.91 14.2299 16.786 12.3376L22 0H19.3576L14.5762 11.311C13.7619 11.0347 12.9167 10.8536 12.0584 10.7715L16.6063 0H13.9639L9.37811 10.8489C8.71302 10.9438 8.05837 11.0985 7.42256 11.311L2.64244 0H0ZM5.39244 0L8.49811 7.35251L9.82056 4.22406L8.03611 0H5.39244ZM11 13.0997C15.7166 13.0997 19.5556 16.8391 19.5556 21.4359C19.5556 26.0327 15.7166 29.7721 11 29.7721C6.28344 29.7721 2.44444 26.0327 2.44444 21.4359C2.44444 16.8391 6.28344 13.0997 11 13.0997Z" fill="#1B1B4B"/>
</svg>
