<svg width="28" height="31" viewBox="0 0 28 31" fill="none" xmlns="http://www.w3.org/2000/svg">
<path d="M2 25.9999V4.99999C2 4.20434 2.31607 3.44128 2.87868 2.87868C3.44128 2.31607 4.20434 2 4.99999 2H25.0999C25.3386 2 25.5675 2.09482 25.7363 2.2636C25.9051 2.43239 25.9999 2.6613 25.9999 2.9V22.5709" stroke="#1B1B4B" stroke-width="2.2" stroke-linecap="round"/>
<path d="M20 10.67C19.9999 11.5726 19.6429 12.4385 19.007 13.079C17.543 14.555 16.1225 16.094 14.603 17.516C14.4334 17.6706 14.2109 17.7541 13.9814 17.7493C13.752 17.7446 13.5331 17.6519 13.37 17.4905L8.99305 13.0805C8.35681 12.4396 7.99976 11.5731 7.99976 10.67C7.99976 9.76693 8.35681 8.90046 8.99305 8.25954C9.31053 7.93971 9.68816 7.68588 10.1042 7.51266C10.5202 7.33943 10.9664 7.25025 11.417 7.25025C11.8677 7.25025 12.3139 7.33943 12.7299 7.51266C13.1459 7.68588 13.5236 7.93971 13.841 8.25954L14 8.42004L14.159 8.25954C14.6356 7.77784 15.2447 7.44884 15.9088 7.31443C16.5729 7.18001 17.2621 7.24627 17.8884 7.50476C18.5148 7.76324 19.05 8.20227 19.4261 8.76594C19.8021 9.32962 20.0019 9.99244 20 10.67Z" stroke="#41D5E2" stroke-width="2.2" stroke-linejoin="round"/>
<path d="M5 22.9995H25.9999M5 28.9995H25.9999" stroke="#1B1B4B" stroke-width="2.2" stroke-linecap="round"/>
<path d="M4.99999 28.9995C4.20434 28.9995 3.44128 28.6834 2.87868 28.1208C2.31607 27.5582 2 26.7951 2 25.9995C2 25.2039 2.31607 24.4408 2.87868 23.8782C3.44128 23.3156 4.20434 22.9995 4.99999 22.9995" stroke="#1B1B4B" stroke-width="2.2" stroke-linecap="round" stroke-linejoin="round"/>
</svg>
